<?xml version="1.0" encoding="UTF-8"?>
<svg width="969px" height="209px" viewBox="0 0 969 209" version="1.1" xmlns="http://www.w3.org/2000/svg" xmlns:xlink="http://www.w3.org/1999/xlink">
    <!-- Generator: Sketch 50.2 (55047) - http://www.bohemiancoding.com/sketch -->
    <title>Group 2</title>
    <desc>Created with Sketch.</desc>
    <defs>
        <path d="M69,199.5 C28.8414238,185.519496 0,147.377886 0,102.5 C0,45.8908131 45.8908131,0 102.5,0 C159.109187,0 205,45.8908131 205,102.5 C205,159.109187 159.109187,205 102.5,205 C93.8813105,205 85.5110703,203.936263 77.5134059,201.932915 M77.5134059,201.932915 C77.9223388,199.468847 78,160.277355 78,158.5 C78,158 76.4835841,141.813221 85.7473586,137.305755 C91.4690408,134.521761 101.999461,135 102,135 C120.225397,135 135,120.225397 135,102 C135,83.7746033 120.225397,69 102,69 C83.7746033,69 69,83.7746033 69,102 C69,104.081577 68.997575,131.890949 69,134 C69.0086236,141.5 69.0086236,189.340587 69.000043,199.400602" id="path-1"></path>
        <filter x="-1.5%" y="-1.5%" width="102.9%" height="102.9%" filterUnits="objectBoundingBox" id="filter-2">
            <feOffset dx="0" dy="3" in="SourceAlpha" result="shadowOffsetInner1"></feOffset>
            <feComposite in="shadowOffsetInner1" in2="SourceAlpha" operator="arithmetic" k2="-1" k3="1" result="shadowInnerInner1"></feComposite>
            <feColorMatrix values="0 0 0 0 0.28627451   0 0 0 0 0.77254902   0 0 0 0 0.71372549  0 0 0 1 0" type="matrix" in="shadowInnerInner1"></feColorMatrix>
        </filter>
    </defs>
    <g id="Page-1" stroke="none" stroke-width="1" fill="none" fill-rule="evenodd">
        <g id="Group-2" transform="translate(2.000000, 2.000000)">
            <g id="Combined-Shape" stroke-linecap="round" stroke-linejoin="round">
                <use fill="black" fill-opacity="1" filter="url(#filter-2)" xlink:href="#path-1"></use>
                <use stroke="#49C5B6" stroke-width="3" xlink:href="#path-1"></use>
            </g>
            <g id="Group" transform="translate(236.000000, 64.000000)" fill="#FFFFFF">
                <path d="M37.84,82.92 C18.32,82.92 0.56,67.88 0.56,41.8 C0.56,15.56 18.32,0.52 37.84,0.52 C57.52,0.52 75.28,15.56 75.28,41.8 C75.28,67.88 57.52,82.92 37.84,82.92 Z M37.84,67.88 C49.36,67.88 56.4,57.48 56.4,41.8 C56.4,25.96 49.36,15.56 37.84,15.56 C26.32,15.56 19.44,25.96 19.44,41.8 C19.44,57.48 26.32,67.88 37.84,67.88 Z M89.82,112.04 L89.82,2.44 L105.02,2.44 L106.3,10.76 L106.94,10.76 C113.5,5.16 121.98,0.52 130.62,0.52 C150.14,0.52 161.5,16.2 161.5,40.52 C161.5,67.4 145.34,82.92 127.9,82.92 C121.02,82.92 114.14,79.72 107.74,74.28 L108.22,87.4 L108.22,112.04 L89.82,112.04 Z M124.06,67.72 C134.46,67.72 142.46,58.44 142.46,40.68 C142.46,25 137.34,15.72 125.5,15.72 C119.74,15.72 114.3,18.6 108.22,24.52 L108.22,61.16 C113.98,65.96 119.42,67.72 124.06,67.72 Z M209.96,82.92 C188.2,82.92 171.24,67.72 171.24,41.8 C171.24,16.2 189,0.52 207.4,0.52 C228.68,0.52 239.88,15.88 239.88,37.8 C239.88,41.32 239.56,44.84 239.08,46.76 L189.16,46.76 C190.76,60.68 199.72,68.68 212.36,68.68 C219.08,68.68 224.84,66.6 230.6,62.92 L236.84,74.44 C229.32,79.4 219.88,82.92 209.96,82.92 Z M189,34.28 L223.88,34.28 C223.88,22.12 218.6,14.76 207.88,14.76 C198.6,14.76 190.6,21.64 189,34.28 Z M253.78,81 L253.78,2.44 L268.98,2.44 L270.26,13 L270.9,13 C277.94,6.12 285.94,0.52 296.66,0.52 C313.46,0.52 320.82,11.88 320.82,31.72 L320.82,81 L302.42,81 L302.42,34.12 C302.42,21.16 298.74,16.36 290.1,16.36 C283.22,16.36 278.74,19.72 272.18,26.12 L272.18,81 L253.78,81 Z M389.9,82.92 C379.18,82.92 367.82,78.28 360.14,72.04 L368.78,60.2 C375.82,65.64 382.54,69 390.54,69 C399.02,69 403.02,65 403.02,59.56 C403.02,53 394.54,50.12 386.22,46.92 C375.82,43.08 364.14,37.16 364.14,24.04 C364.14,10.28 375.18,0.52 392.78,0.52 C403.66,0.52 412.46,5 418.86,9.96 L410.38,21.16 C404.94,17.16 399.34,14.44 393.1,14.44 C385.26,14.44 381.58,18.12 381.58,23.08 C381.58,29.32 389.42,31.72 397.9,34.76 C408.62,38.76 420.46,43.88 420.46,58.6 C420.46,72.04 409.74,82.92 389.9,82.92 Z M433.24,112.04 L433.24,2.44 L448.44,2.44 L449.72,10.76 L450.36,10.76 C456.92,5.16 465.4,0.52 474.04,0.52 C493.56,0.52 504.92,16.2 504.92,40.52 C504.92,67.4 488.76,82.92 471.32,82.92 C464.44,82.92 457.56,79.72 451.16,74.28 L451.64,87.4 L451.64,112.04 L433.24,112.04 Z M467.48,67.72 C477.88,67.72 485.88,58.44 485.88,40.68 C485.88,25 480.76,15.72 468.92,15.72 C463.16,15.72 457.72,18.6 451.64,24.52 L451.64,61.16 C457.4,65.96 462.84,67.72 467.48,67.72 Z M536.9,82.92 C523.14,82.92 513.7,73.64 513.7,59.88 C513.7,43.08 527.62,34.28 559.94,30.76 C559.62,22.44 556.26,15.4 545.54,15.4 C537.86,15.4 530.5,18.92 523.46,23.08 L516.74,10.76 C525.38,5.32 536.58,0.52 549.06,0.52 C568.58,0.52 578.34,12.52 578.34,34.44 L578.34,81 L563.14,81 L561.86,72.36 L561.22,72.36 C554.18,78.28 546.18,82.92 536.9,82.92 Z M542.82,68.52 C549.22,68.52 554.02,65.32 559.94,59.88 L559.94,42.28 C538.5,45 531.46,50.6 531.46,58.44 C531.46,65.48 536.26,68.52 542.82,68.52 Z M629.52,82.92 C608.08,82.92 591.6,67.88 591.6,41.8 C591.6,15.56 610,0.52 630.96,0.52 C641.04,0.52 648.24,4.36 654,9.32 L645.04,21.32 C640.88,17.64 636.88,15.56 631.92,15.56 C619.28,15.56 610.48,25.96 610.48,41.8 C610.48,57.48 619.12,67.88 631.44,67.88 C637.52,67.88 643.12,64.84 647.6,61.16 L655.12,73.32 C647.76,79.72 638.48,82.92 629.52,82.92 Z M700.54,82.92 C678.78,82.92 661.82,67.72 661.82,41.8 C661.82,16.2 679.58,0.52 697.98,0.52 C719.26,0.52 730.46,15.88 730.46,37.8 C730.46,41.32 730.14,44.84 729.66,46.76 L679.74,46.76 C681.34,60.68 690.3,68.68 702.94,68.68 C709.66,68.68 715.42,66.6 721.18,62.92 L727.42,74.44 C719.9,79.4 710.46,82.92 700.54,82.92 Z M679.58,34.28 L714.46,34.28 C714.46,22.12 709.18,14.76 698.46,14.76 C689.18,14.76 681.18,21.64 679.58,34.28 Z" id="open-space"></path>
            </g>
        </g>
    </g>
</svg>